<svg xmlns="http://www.w3.org/2000/svg" width="2524" height="1296" viewBox="0 0 2524 1296" version="1.1"><path d="M 744.039 10.275 C 742.610 10.998, 741.297 12.774, 740.908 14.510 C 740.540 16.155, 739.449 19.300, 738.484 21.500 C 736.976 24.938, 736.718 28.943, 736.651 50 C 736.594 67.908, 736.919 75.307, 737.860 77.500 C 738.636 79.310, 739.489 88.233, 740.009 100 C 740.651 114.525, 741.524 122.562, 743.430 131.500 C 745.742 142.341, 745.991 145.674, 745.999 166 C 746.005 181.652, 746.476 191.239, 747.547 197.500 C 748.393 202.450, 749.741 211.900, 750.543 218.500 C 751.344 225.100, 752.438 232.750, 752.974 235.500 C 753.510 238.250, 754.186 245.450, 754.476 251.500 C 754.766 257.550, 755.321 267.450, 755.709 273.500 C 756.097 279.550, 756.463 291.475, 756.522 300 C 756.581 308.525, 757.213 319.550, 757.925 324.500 C 759.520 335.589, 758.837 367.956, 756.911 372.500 C 756.010 374.628, 755.582 383.205, 755.440 402 C 755.330 416.575, 754.707 434.575, 754.055 442 C 753.404 449.425, 752.475 462.700, 751.990 471.500 C 751.506 480.300, 750.606 492.225, 749.991 498 C 749.376 503.775, 749.014 518.400, 749.186 530.500 C 749.359 542.600, 748.929 566, 748.232 582.500 C 747.535 599, 746.480 630.950, 745.888 653.500 C 744.642 700.996, 743.811 718.173, 742.188 730 C 741.546 734.675, 740.494 746.468, 739.850 756.207 C 738.828 771.663, 738.888 775.159, 740.318 783.707 C 744.520 808.810, 750.703 816.774, 764.148 814.399 C 770.925 813.201, 773.755 811.199, 776.447 805.699 C 778.703 801.086, 779.073 798.873, 779.408 787.964 C 779.619 781.109, 780.473 772.125, 781.307 768 C 783.566 756.819, 785.399 724.905, 784.626 710.224 C 783.953 697.448, 785.715 676.934, 788.148 669.202 C 788.719 667.389, 792.892 661.936, 797.421 657.085 C 804.959 649.010, 810 641.200, 810 637.594 C 810 635.220, 813.678 627.396, 819.357 617.688 C 822.313 612.635, 825.947 606.344, 827.433 603.708 C 831.409 596.654, 846.297 582.512, 853.508 578.940 C 859.478 575.983, 859.548 575.974, 864.733 577.513 C 872.766 579.899, 881.239 587.765, 885.045 596.370 C 889.326 606.047, 889.979 616.900, 890.436 686 C 890.554 703.875, 891.166 732.225, 891.796 749 C 893.659 798.640, 894.005 799.642, 917.891 824.520 C 929.275 836.377, 932.934 838.465, 941.036 837.730 C 947.780 837.119, 950.782 835.367, 954.647 829.784 C 957.276 825.987, 957.499 824.951, 957.486 816.582 C 957.470 805.879, 956.636 803.925, 948.174 794.770 C 937.595 783.324, 937.743 783.692, 936.889 766.595 C 936.474 758.293, 935.608 749.094, 934.964 746.154 C 933.599 739.920, 933.514 736.335, 933.810 697 C 933.993 672.686, 933.681 664.599, 932.036 651 C 930.922 641.790, 930.031 628.181, 930.020 620.197 C 929.988 597.003, 926.488 585.954, 914.698 571.824 C 911.175 567.602, 906.694 561.752, 904.740 558.824 C 899.954 551.652, 896.537 548.588, 889.993 545.595 C 883.274 542.521, 868.471 540.588, 856.182 541.179 C 848.941 541.528, 846.604 542.085, 842.101 544.538 C 839.132 546.156, 835.532 549.059, 834.101 550.990 C 830.914 555.290, 819.671 566.484, 810.648 574.338 C 806.960 577.549, 801.714 583.478, 798.990 587.515 C 794.051 594.834, 791.737 596.604, 788.652 595.420 C 786.293 594.515, 784.759 587.626, 785.351 580.593 C 786.462 567.384, 788.187 530.883, 788.214 520 C 788.281 493.236, 787.193 458.009, 786.103 451.646 C 785.131 445.977, 785.222 442.441, 786.629 431.192 C 788.085 419.551, 788.162 415.784, 787.160 405.046 C 785.555 387.840, 785.735 344.483, 787.507 321.500 C 789.212 299.376, 789.446 270.730, 788.009 260 C 786.852 251.363, 784.173 222.045, 782.937 204.500 C 782.471 197.900, 781.602 189.125, 781.004 185 C 779.673 175.814, 779.339 172.399, 777.975 154 C 777.384 146.025, 775.780 134.125, 774.412 127.555 C 773.044 120.985, 771.502 109.960, 770.987 103.055 C 770.471 96.150, 769.593 87.575, 769.035 84 C 766.182 65.722, 764.729 53.132, 763.957 40 C 762.907 22.138, 762.347 19.256, 759.340 16.249 C 758.031 14.940, 756.243 12.774, 755.365 11.435 C 753.549 8.662, 748.290 8.124, 744.039 10.275 M 65.552 44.121 C 60.420 50.220, 59.756 53.209, 59.254 72.500 C 58.974 83.277, 59.267 94.713, 59.986 101 C 62.308 121.309, 62.321 124.451, 60.126 136.235 C 58.973 142.431, 56.871 154.475, 55.456 163 C 51.637 186.006, 50.413 190.438, 44.542 202.500 C 41.598 208.550, 38.638 215.268, 37.965 217.429 C 36.192 223.120, 36.685 238.165, 38.997 248.988 C 41.905 262.593, 41.717 268.775, 37.934 284.013 C 37.454 285.946, 36.590 292.021, 36.013 297.513 C 34.843 308.657, 33.357 319.228, 32.009 326 C 31.516 328.475, 30.824 342.366, 30.470 356.869 L 29.827 383.238 26.316 392.869 C 18.078 415.466, 18.518 413.446, 18.890 427 C 19.506 449.436, 19.396 454.422, 18.166 460 C 15.654 471.389, 14.043 485.891, 14.022 497.296 C 14.003 507.472, 13.623 510.217, 11.250 517.296 C 8.839 524.488, 8.539 526.733, 8.820 535.500 C 9.285 550.021, 9.214 559.757, 8.458 585 C 7.423 619.564, 10.064 684.160, 12.883 693.266 C 13.434 695.045, 15.373 701.225, 17.193 707 C 20.386 717.139, 20.505 718.119, 20.652 735.500 C 20.873 761.733, 21.812 769.099, 27.025 785.500 C 30.472 796.346, 32.398 807.374, 34.447 828 C 35.941 843.039, 39.149 864.434, 40.520 868.500 C 41.957 872.764, 46.400 880.630, 48.890 883.320 C 55.459 890.417, 63.793 892.518, 71.327 888.976 C 75.372 887.075, 76.417 885.911, 79.066 880.361 C 83.052 872.010, 83.959 863.249, 83.982 832.902 C 83.997 812.949, 83.688 807.851, 81.980 799.902 C 80.869 794.731, 79.051 786, 77.939 780.500 C 75.881 770.314, 71.638 752.716, 70.585 750 C 70.265 749.175, 69.327 741.075, 68.500 732 C 67.673 722.925, 66.360 711.900, 65.581 707.500 C 64.495 701.359, 64.399 697.641, 65.169 691.500 C 66.272 682.701, 65.233 672.127, 61.779 657 C 59.720 647.979, 57.780 610.622, 57.522 575 C 57.452 565.375, 57.022 552.100, 56.566 545.500 C 55.985 537.093, 56.114 530.806, 56.997 524.500 C 57.690 519.550, 58.400 507.995, 58.574 498.822 C 58.846 484.572, 59.253 480.932, 61.370 473.822 C 64.501 463.307, 65.725 455.206, 66.931 437 C 67.459 429.025, 68.816 418.545, 69.946 413.711 C 71.076 408.877, 72 403.414, 72 401.569 C 72 399.725, 72.930 393.579, 74.066 387.911 C 76.279 376.870, 76.285 365.083, 74.080 355.500 C 72.751 349.719, 72.710 346.547, 73.874 339.215 C 74.553 334.932, 74.254 332.185, 72.295 324.715 C 70.061 316.203, 69.967 314.908, 71.058 307.747 C 72.008 301.508, 71.986 299.688, 70.944 298.432 C 69.165 296.289, 69.157 276.985, 70.932 270.701 C 72.039 266.781, 72.056 265.200, 71.024 262.073 C 69.631 257.851, 70.097 247.434, 72.011 240 C 72.649 237.525, 73.508 230.100, 73.920 223.500 C 74.754 210.140, 74.800 209.977, 80.198 201.357 C 85.921 192.216, 87.020 187.399, 86.806 172.397 C 86.704 165.304, 86.991 155.855, 87.443 151.400 C 88.121 144.723, 87.876 141.323, 86.051 132.032 C 84.139 122.306, 83.988 119.892, 84.943 114.404 C 87.868 97.608, 86.897 60.109, 83.352 53.004 C 81.561 49.414, 77.695 45.017, 76.295 44.978 C 75.858 44.966, 74.375 44.076, 73 43 C 69.602 40.342, 68.605 40.492, 65.552 44.121 M 1095.389 121.077 C 1090.544 123.624, 1085.368 131.453, 1083.327 139.320 C 1082.512 142.462, 1082.081 148.630, 1082.231 155 C 1082.429 163.370, 1082.036 167.021, 1080.295 173 C 1079.094 177.125, 1076.945 185.143, 1075.520 190.818 C 1074.096 196.493, 1072.169 203.243, 1071.238 205.818 C 1069.286 211.220, 1069.071 229.606, 1070.904 234.315 C 1072.408 238.179, 1072.260 248.567, 1070.429 267.500 C 1069.578 276.300, 1068.722 295.224, 1068.526 309.554 C 1068.231 331.093, 1067.856 336.639, 1066.363 341.554 C 1063.868 349.765, 1063.860 370.682, 1066.345 385.505 L 1068.191 396.510 1063.690 410.505 C 1057.668 429.231, 1057.178 432.262, 1056.413 455.500 C 1055.636 479.121, 1055.718 483.622, 1057.063 491.213 C 1060.410 510.111, 1056.449 516.921, 1040 520.546 C 1030.225 522.700, 1024.570 526.031, 1020.922 531.783 C 1014.057 542.609, 1019.495 561.249, 1030.139 563.378 C 1031.850 563.720, 1035.473 564, 1038.191 564 C 1040.908 564, 1044.023 564.477, 1045.114 565.061 C 1048.056 566.635, 1049.207 570.533, 1048.003 574.845 C 1046.921 578.723, 1045.714 607.922, 1043.907 674 C 1042.730 717.063, 1043.121 724.396, 1047.001 732.002 C 1048.076 734.108, 1050.366 736.836, 1052.090 738.064 C 1056.121 740.934, 1058 745.525, 1058 752.500 C 1058 755.560, 1058.674 759.677, 1059.497 761.647 C 1061.909 767.419, 1069.960 776.647, 1077.496 782.275 C 1081.343 785.149, 1087.418 790.237, 1090.996 793.583 C 1094.573 796.929, 1100.425 801.620, 1104 804.008 C 1107.575 806.396, 1110.725 808.638, 1111 808.991 C 1112.374 810.752, 1121.487 816.263, 1125.239 817.600 C 1130.309 819.408, 1154.414 821.156, 1165 820.483 C 1169.125 820.220, 1176.800 819.807, 1182.056 819.565 C 1199.982 818.737, 1204.650 815.226, 1204.900 802.385 C 1204.976 798.522, 1204.455 796.563, 1202.773 794.385 C 1199.440 790.066, 1198.097 789.222, 1191 786.990 C 1185.840 785.367, 1179.862 784.743, 1162 783.959 C 1149.625 783.416, 1137.827 782.515, 1135.782 781.956 C 1133.163 781.239, 1130.503 779.161, 1126.782 774.923 C 1123.877 771.614, 1119.361 767.530, 1116.748 765.847 C 1108.868 760.775, 1103.733 754.343, 1096.914 741 C 1095.930 739.075, 1093.292 735.307, 1091.051 732.627 C 1085.952 726.528, 1085.492 724.664, 1087.019 716.264 C 1087.798 711.979, 1088.518 691.905, 1088.984 661.500 L 1089.720 613.500 1092.411 604 C 1093.892 598.775, 1095.996 589.100, 1097.089 582.500 C 1099.670 566.899, 1101.470 561.593, 1105.807 556.791 C 1111.443 550.553, 1114.881 549.312, 1128 548.778 C 1137.941 548.373, 1140.277 547.935, 1145.231 545.547 C 1152.118 542.227, 1157.642 536.425, 1158.556 531.553 C 1158.924 529.592, 1158.911 525.890, 1158.526 523.327 C 1157.715 517.920, 1153.121 512.581, 1146.322 509.145 C 1139.307 505.599, 1124.950 501.726, 1116.269 501.038 C 1103.937 500.059, 1103.621 499.617, 1102.007 481.085 C 1100.417 462.818, 1101.737 447.004, 1105.645 437.500 C 1112.644 420.476, 1113.192 417.682, 1112.711 401.500 C 1112.465 393.250, 1111.798 383.575, 1111.228 380 C 1110.658 376.425, 1109.920 362.475, 1109.587 349 C 1109.110 329.708, 1109.307 322.268, 1110.513 314 C 1111.355 308.225, 1112.472 299.531, 1112.996 294.680 C 1113.519 289.829, 1114.862 282.854, 1115.980 279.180 C 1117.098 275.506, 1118.494 266.875, 1119.084 260 C 1119.673 253.125, 1120.819 243.559, 1121.629 238.742 C 1122.594 233.012, 1122.890 227.135, 1122.488 221.742 C 1121.575 209.515, 1120.785 183.191, 1120.634 160 C 1120.495 138.754, 1120.164 136.594, 1115.598 127.168 C 1112.046 119.835, 1102.961 117.096, 1095.389 121.077 M 2362.799 174.711 C 2357.080 175.584, 2351.690 185.173, 2348.350 200.420 C 2347.073 206.249, 2346.803 215.540, 2346.821 253 C 2346.840 293.900, 2346.649 299.446, 2344.933 307.852 C 2342.328 320.612, 2339.722 360.724, 2341.025 368 C 2342.909 378.523, 2343.261 384.909, 2342.191 389.191 C 2341.599 391.561, 2340.557 399.172, 2339.874 406.103 C 2338.857 416.426, 2338.875 420.271, 2339.976 427.348 C 2341.088 434.496, 2341.095 436.984, 2340.016 441.745 C 2339.298 444.910, 2338.777 452.111, 2338.859 457.747 C 2338.989 466.782, 2338.770 468.230, 2337.003 469.997 C 2333.955 473.045, 2331.867 472.479, 2324.498 466.606 C 2318.065 461.479, 2312.484 459.275, 2308.829 460.417 C 2308.098 460.646, 2306.271 461.102, 2304.768 461.431 C 2298.171 462.875, 2290.155 473.802, 2288.028 484.250 C 2286.556 491.486, 2288.525 499.250, 2293.175 504.547 C 2298.186 510.254, 2301.207 511.338, 2313.884 511.981 L 2325.268 512.558 2328.098 515.948 C 2329.732 517.905, 2331.194 521.111, 2331.557 523.532 C 2332.553 530.175, 2332.587 560.561, 2331.610 571.081 C 2330.391 584.210, 2331.984 594.359, 2337.213 606.773 C 2341.231 616.315, 2341.324 616.805, 2342.094 632.500 C 2342.581 642.426, 2343.686 652.107, 2345.005 658 C 2346.981 666.828, 2347.048 668.385, 2345.946 680 C 2344.312 697.222, 2345.271 707.102, 2350.637 728.327 C 2355.382 747.094, 2359.781 758.311, 2365.148 765.331 C 2372.546 775.007, 2389.038 788.339, 2399.629 793.206 C 2403.874 795.156, 2406.106 795.437, 2417 795.391 C 2436.505 795.310, 2444.191 792.089, 2460.099 777.331 C 2465.334 772.474, 2472.516 766.742, 2476.059 764.593 C 2491.658 755.132, 2503.707 744.416, 2507.828 736.337 C 2510.945 730.228, 2516.897 711.641, 2518.234 703.838 C 2519.139 698.564, 2519.132 696.253, 2518.203 693.684 C 2517.541 691.855, 2517 689.625, 2517 688.730 C 2517 687.834, 2515.586 685.780, 2513.858 684.165 C 2509.749 680.325, 2503.170 679.424, 2497.500 681.926 C 2491.288 684.666, 2481.118 696.908, 2475.008 709 C 2469.710 719.485, 2464.054 725.074, 2441.996 741.620 C 2436.218 745.954, 2429.693 750.925, 2427.496 752.667 C 2422.949 756.271, 2416.294 758.544, 2412.841 757.671 C 2408.220 756.503, 2400.981 750.978, 2396.482 745.185 C 2388.197 734.516, 2385.042 726.640, 2384.992 716.500 C 2384.976 713.200, 2384.268 706.675, 2383.419 702 C 2382.348 696.102, 2381.732 684.395, 2381.409 663.760 C 2380.933 633.362, 2380.740 631.296, 2377.101 617.590 C 2374.820 609.004, 2374.439 599.813, 2376.101 593.500 C 2376.757 591.008, 2377.104 576.040, 2377.022 553.807 C 2376.878 514.946, 2376.826 515.346, 2382.675 509.789 C 2386.702 505.963, 2392.439 504.210, 2408.496 501.902 C 2433.097 498.366, 2439.642 493.029, 2435.830 479.616 C 2434.422 474.661, 2431.976 471.756, 2426.561 468.607 C 2418.634 463.996, 2410.817 463.665, 2379.905 466.630 C 2371.039 467.481, 2369.062 463.648, 2372.616 452.500 C 2373.881 448.529, 2374.199 442.983, 2374.160 425.551 C 2374.123 409.284, 2374.517 401.646, 2375.684 396.051 C 2376.820 390.601, 2377.331 381.483, 2377.519 363.277 C 2377.850 331.336, 2378.458 322.291, 2381.976 297 C 2384.693 277.469, 2384.829 274.728, 2384.844 239 C 2384.861 198.439, 2384.241 189.619, 2380.873 182.453 C 2379.121 178.725, 2377.797 177.413, 2374.258 175.896 C 2369.933 174.042, 2368.297 173.873, 2362.799 174.711 M 211.500 360.313 C 206.081 362.472, 202.546 365.105, 199.390 369.333 C 195.242 374.889, 194 378.966, 194 387.027 C 194 397.820, 197.227 403.454, 205.421 406.966 C 211.447 409.549, 214.522 409.525, 221.709 406.836 C 227.436 404.693, 236.672 397.063, 241.165 390.764 C 243.758 387.129, 245.039 378.737, 243.678 374.304 C 242.350 369.977, 236.639 364.006, 231.492 361.563 C 226.779 359.327, 215.712 358.634, 211.500 360.313 M 223.500 485.955 C 216.462 489.148, 210.024 501.796, 205.952 520.429 C 203.433 531.953, 203.487 540.371, 206.184 556.945 C 208.240 569.580, 208.300 571.419, 207.179 587.445 C 205.091 617.319, 205.962 652.668, 208.878 656.422 C 209.339 657.015, 210.500 660.460, 211.460 664.078 C 213.082 670.196, 213.092 671.094, 211.602 676.909 C 209.759 684.104, 209.504 695.914, 211.083 701.007 C 211.678 702.928, 212.327 712.903, 212.524 723.174 C 212.916 743.613, 212.686 742.673, 220.426 755.473 C 224.795 762.697, 226.508 768.482, 227.987 781 C 228.604 786.225, 229.483 791.625, 229.938 793 C 231.563 797.901, 234.951 814.670, 236.414 825.052 C 238.662 841, 242.237 847.861, 251.333 853.679 C 254.026 855.400, 257.151 856.292, 261.833 856.675 C 267.647 857.149, 268.807 856.949, 270.903 855.109 C 272.225 853.949, 273.687 853, 274.153 853 C 274.619 853, 275 852.531, 275 851.958 C 275 851.385, 275.832 850.023, 276.850 848.931 C 280.264 845.266, 281.286 839.254, 281.152 823.606 C 281.083 815.415, 280.507 807.090, 279.873 805.106 C 278.194 799.852, 277.376 797.048, 276.048 792 C 275.397 789.525, 274.445 786.118, 273.932 784.429 C 273.420 782.740, 272.995 779.815, 272.989 777.929 C 272.972 772.423, 270.463 765.617, 263.953 753.412 L 257.861 741.990 257.001 727.514 C 256.528 719.552, 255.801 712.488, 255.386 711.816 C 254.342 710.127, 252.587 667.935, 253.001 654.500 C 253.801 628.580, 253.357 603.121, 251.928 592.977 C 250.619 583.677, 250.619 581.586, 251.931 574.977 C 253.565 566.744, 253.804 550.866, 252.688 524.747 C 252.056 509.957, 251.678 507.330, 249.464 502.324 C 246.600 495.847, 240.557 488, 238.433 488 C 237.645 488, 237 487.599, 237 487.109 C 237 486.620, 235.537 486.013, 233.750 485.762 C 231.963 485.510, 229.825 485.043, 229 484.723 C 228.175 484.403, 225.700 484.957, 223.500 485.955 M 481 502.460 C 477.975 503.161, 474.254 504.237, 472.731 504.850 C 468.548 506.535, 460.114 513.104, 454.405 519.126 C 451.602 522.082, 446.884 526.525, 443.920 529 C 435.823 535.762, 432.973 538.752, 426.452 547.327 C 423.178 551.632, 419.600 556.328, 418.500 557.763 C 417.400 559.198, 415.212 561.751, 413.637 563.436 C 408.658 568.764, 404.699 580.343, 400.041 603.200 C 398.864 608.975, 397.698 611.530, 390.093 625 C 382.656 638.174, 380.011 651.109, 379.564 676.500 C 379.380 686.950, 378.889 700.494, 378.473 706.598 C 377.156 725.913, 381.470 742.419, 392.431 760 C 396.093 765.873, 400.041 770.016, 408 776.338 C 413.675 780.844, 416.991 783.604, 421.414 787.500 C 432.916 797.631, 449.747 805.726, 464.500 808.222 C 469.855 809.128, 511.887 810.231, 530.708 809.960 C 540.415 809.820, 554.205 806.176, 562.426 801.579 C 571.947 796.254, 586.794 784.816, 598.500 773.786 C 604 768.604, 609.266 764.080, 610.201 763.732 C 611.172 763.371, 612.735 763.830, 613.842 764.800 C 617.081 767.638, 621.049 781.315, 622.011 792.962 C 622.490 798.758, 623.570 806.435, 624.410 810.022 C 626.157 817.477, 626.488 845.294, 624.958 856 C 624.447 859.575, 623.810 881.400, 623.543 904.500 C 623.275 927.600, 622.755 954.310, 622.387 963.855 C 621.547 985.631, 622.598 992.557, 628.325 1003 C 632.278 1010.207, 632.463 1010.949, 633.075 1022 C 633.647 1032.313, 634.129 1034.533, 637.741 1043.500 C 644.696 1060.762, 646.680 1073.159, 643.904 1082.007 C 643.301 1083.929, 642.441 1099.219, 641.991 1116 C 640.833 1159.236, 639.427 1165.048, 624.442 1188.554 C 620.896 1194.116, 616.851 1201.483, 615.452 1204.925 C 612.234 1212.847, 609.340 1217.415, 601.176 1227.461 C 586.812 1245.138, 585.297 1246.129, 568.277 1248.999 C 551.169 1251.883, 548.699 1250.831, 537.282 1235.809 C 529.469 1225.527, 525.153 1217.585, 522.118 1207.902 C 519.262 1198.789, 517.616 1186.856, 518.371 1180.743 C 518.728 1177.859, 519.466 1171, 520.012 1165.500 C 523.087 1134.510, 525.388 1120.136, 528.713 1111.131 C 533.198 1098.986, 533.978 1095.556, 533.989 1087.929 C 533.998 1081.638, 533.535 1079.442, 531.250 1074.936 C 526.463 1065.495, 516.639 1060.984, 507.464 1064.012 C 498.933 1066.827, 491.943 1077.845, 479.876 1107.500 L 474.585 1120.500 473.657 1139.500 C 473.146 1149.950, 472.719 1163.225, 472.707 1169 C 472.677 1183.826, 474.628 1215.913, 475.782 1219.558 C 476.899 1223.084, 479.961 1229.266, 480.956 1230 C 483.095 1231.579, 490.385 1242.755, 494.405 1250.618 C 499.515 1260.613, 505.516 1267.029, 520.730 1278.761 C 536.324 1290.787, 545.053 1293.082, 567.620 1291.091 C 594.275 1288.740, 602.804 1285.588, 613.311 1274.205 C 616.715 1270.517, 623.815 1263.225, 629.089 1258 C 641.320 1245.881, 642.963 1243.600, 648.569 1230.943 C 652.993 1220.952, 658.293 1212.560, 664.952 1205 C 673.657 1195.117, 679.020 1181.865, 682.423 1161.829 C 684.552 1149.296, 685.822 1057.047, 684.004 1047.020 C 682.459 1038.500, 679.648 1032.637, 670.197 1018.225 C 665.770 1011.474, 661.849 1004.590, 661.484 1002.928 C 661.116 1001.251, 661.520 996.698, 662.392 992.703 C 663.634 987.012, 664.066 976.472, 664.447 942.500 C 664.712 918.850, 665.214 885.922, 665.563 869.326 C 665.940 851.332, 665.766 832.508, 665.131 822.690 C 663.788 801.945, 658.389 773.103, 651.993 752.500 C 648.293 740.585, 647.893 737.266, 646.982 711 C 645.735 675.013, 644.722 665.660, 640.542 651.517 C 637.145 640.027, 637 638.890, 637 623.837 C 637 609.206, 634.621 584.781, 632.038 572.887 C 631.514 570.474, 630.792 567.150, 630.433 565.500 C 630.074 563.850, 628.534 559.800, 627.012 556.500 C 625.490 553.200, 623.482 548.250, 622.550 545.500 C 617.336 530.114, 614.486 525.479, 607.613 521.202 C 595.581 513.716, 590.342 512.026, 574.258 510.440 C 566.141 509.640, 556.125 507.983, 552 506.758 C 545.395 504.797, 542.172 504.526, 525 504.488 C 514.129 504.464, 502.402 503.896, 498.500 503.204 C 494.650 502.522, 490.375 501.789, 489 501.575 C 487.625 501.361, 484.025 501.759, 481 502.460 M 1832.500 517.168 C 1827.550 517.606, 1818.775 518.383, 1813 518.896 C 1801.012 519.961, 1789.684 523.390, 1780.500 528.736 C 1774.757 532.079, 1757.707 546.227, 1753.487 551.151 C 1751.359 553.634, 1743 566.613, 1743 567.433 C 1743 567.698, 1740.638 571.974, 1737.750 576.934 C 1724.944 598.933, 1720.939 606.939, 1719.403 613.613 C 1718.531 617.401, 1716.197 624.079, 1714.217 628.454 C 1710.767 636.073, 1710.585 637.043, 1709.901 651.454 C 1709.507 659.729, 1708.904 668.300, 1708.561 670.500 C 1706.952 680.802, 1706.235 696.591, 1707.099 702.693 C 1708.142 710.063, 1712.861 724.501, 1717.127 733.377 C 1720.618 740.642, 1725.978 747.863, 1736.435 759.391 C 1750.353 774.734, 1757.396 778.971, 1778 784.393 C 1781.025 785.189, 1788 787.256, 1793.500 788.987 C 1805.888 792.886, 1811.402 793.834, 1826 794.579 C 1832.325 794.902, 1841.775 795.466, 1847 795.833 C 1861.225 796.832, 1878.396 795.545, 1885 792.986 C 1894.851 789.168, 1900.403 787.323, 1906 786.008 C 1915.639 783.742, 1921.446 780.520, 1929.247 773.110 C 1939.004 763.842, 1941.990 757.538, 1943.010 744.055 C 1943.408 738.800, 1944.096 733.600, 1944.539 732.500 C 1944.983 731.400, 1947.781 727.845, 1950.758 724.601 C 1953.735 721.356, 1957.090 716.631, 1958.213 714.101 C 1959.336 711.570, 1962.674 704.550, 1965.631 698.500 C 1971.916 685.639, 1974.998 672.432, 1975.003 658.343 C 1975.005 653.418, 1975.930 644.847, 1977.090 639 C 1978.802 630.379, 1979.061 626.468, 1978.540 617.147 C 1977.783 603.590, 1976.454 599.290, 1969.939 589.310 C 1967.223 585.148, 1964.996 581.239, 1964.990 580.622 C 1964.964 577.647, 1959.845 569.040, 1955.907 565.350 C 1946.854 556.868, 1931.429 545.997, 1920 540.046 C 1916.425 538.184, 1911.925 535.690, 1910 534.504 C 1906.009 532.044, 1892.461 526.149, 1882.478 522.528 C 1869.923 517.974, 1848.902 515.720, 1832.500 517.168 M 1362.490 525.450 C 1346.120 529.464, 1340.192 536.537, 1320.543 575.500 C 1315.659 585.184, 1315.500 585.769, 1315.512 594 C 1315.530 606.534, 1318.387 610.863, 1335.082 623.650 C 1345.713 631.793, 1352.407 634.566, 1368.500 637.493 C 1379.182 639.436, 1406.728 649.981, 1409.712 653.269 C 1415.068 659.174, 1415.454 660.604, 1415.548 674.925 C 1415.598 682.391, 1416.227 691.650, 1416.946 695.500 C 1418.522 703.932, 1417.781 721.205, 1415.536 728.398 C 1411.702 740.679, 1402.551 752.342, 1384.617 767.803 C 1371.456 779.150, 1367.555 782.059, 1361.503 785.039 C 1358.755 786.393, 1354.268 788.961, 1351.532 790.746 C 1344.555 795.299, 1340.660 795.847, 1335.339 793.024 C 1330.316 790.359, 1327 784.531, 1327 778.368 C 1327 771.773, 1324.987 762.920, 1322.032 756.524 C 1318.917 749.780, 1311.421 741.887, 1306 739.644 C 1300.146 737.221, 1291.710 736.580, 1288.389 738.307 C 1280.831 742.237, 1278.240 747.078, 1277.322 758.986 C 1276.561 768.849, 1278.009 776.476, 1283.008 788.946 C 1285.115 794.201, 1288.043 802.325, 1289.514 807 C 1295.360 825.578, 1303.131 833.258, 1322.025 839.128 C 1333.523 842.700, 1344.746 842.380, 1357 838.129 C 1371.032 833.261, 1382.329 827.040, 1394.500 817.479 C 1397.800 814.886, 1404.280 810.911, 1408.899 808.646 C 1417.841 804.261, 1423.729 799.162, 1434.774 786.235 C 1438.188 782.239, 1442.164 776.637, 1443.609 773.785 C 1446.639 767.805, 1449.761 762.879, 1455.718 754.676 C 1458.044 751.473, 1460.440 747.198, 1461.042 745.176 C 1464.700 732.896, 1464.872 730.675, 1464.537 699.980 C 1464.127 662.464, 1463.464 659.378, 1452.139 642.328 C 1449.927 638.998, 1446.754 633.459, 1445.087 630.019 C 1438.999 617.451, 1434.578 613.531, 1420.882 608.556 C 1415.722 606.682, 1407.225 603.382, 1402 601.222 C 1396.775 599.063, 1389.350 596.744, 1385.500 596.070 C 1370.981 593.525, 1367 591.745, 1367 587.795 C 1367 582.073, 1377.070 571.981, 1384.717 570.040 C 1392.389 568.093, 1403.220 567.587, 1407.439 568.980 C 1409.511 569.664, 1414.058 572.807, 1417.542 575.965 C 1423.002 580.913, 1424.571 581.789, 1428.883 582.300 C 1436.542 583.207, 1440.639 582.161, 1444.482 578.318 C 1449.544 573.256, 1450.477 562.691, 1446.537 555.071 C 1443.977 550.121, 1427.796 535.693, 1420.864 532.180 C 1412.689 528.036, 1409.573 527.260, 1394 525.487 C 1379.102 523.791, 1369.303 523.779, 1362.490 525.450 M 2048.759 531.577 C 2044.644 535.574, 2040.857 543.084, 2039.193 550.546 C 2038.585 553.271, 2037.587 564.039, 2036.975 574.477 C 2036.363 584.914, 2035.443 595.663, 2034.931 598.363 C 2034.419 601.064, 2034 606.024, 2034 609.386 C 2034 612.749, 2033.120 620.900, 2032.045 627.500 C 2028.580 648.778, 2027.820 666.537, 2029.536 686.081 C 2031.316 706.359, 2031.303 706.295, 2035.745 716 C 2037.633 720.125, 2040.836 728.474, 2042.864 734.554 C 2048.556 751.624, 2053.322 759.036, 2067.438 772.767 C 2077.289 782.349, 2081.242 785.441, 2089 789.631 C 2103.393 797.404, 2106.232 798.142, 2118.824 797.384 C 2128.591 796.796, 2130.206 796.966, 2137.802 799.371 C 2150.563 803.412, 2158.313 802.772, 2169.500 796.750 C 2185.782 787.986, 2189.738 784.628, 2198.954 771.756 C 2200.303 769.870, 2203.228 767.026, 2205.454 765.435 C 2212.326 760.522, 2218.080 754.764, 2220.126 750.753 C 2222.902 745.312, 2225.544 743, 2228.986 743 C 2234.477 743, 2238.922 752.835, 2238.976 765.101 C 2239.021 775.495, 2244.327 785.272, 2250.776 786.846 C 2259.031 788.861, 2262.876 788.343, 2267.443 784.600 C 2271.381 781.373, 2271.751 780.652, 2272.334 775.080 C 2272.947 769.212, 2270.540 751.518, 2267.970 743 C 2264.581 731.765, 2259.641 710.378, 2258.847 703.500 C 2256.810 685.842, 2255.589 657.873, 2255.530 627.500 C 2255.478 600.380, 2255.212 594.698, 2253.786 590.242 C 2252.860 587.350, 2251.797 581.050, 2251.423 576.242 C 2249.986 557.753, 2242.378 550.130, 2228.270 553.040 C 2223.675 553.988, 2221.738 555.028, 2218.759 558.148 C 2216.701 560.303, 2214.254 563.514, 2213.322 565.283 C 2210.630 570.392, 2211.049 580.690, 2214.450 593 C 2217.549 604.213, 2218.075 614.035, 2216.519 631.622 C 2215.890 638.727, 2216.118 640.795, 2218.337 648.122 C 2222.411 661.578, 2222.411 661.622, 2218.651 672.039 C 2216.773 677.243, 2214.909 684.425, 2214.508 688 C 2213.642 695.722, 2211.937 700.216, 2208.015 705.117 C 2204.438 709.586, 2200.120 717.586, 2197.014 725.500 C 2191.394 739.819, 2182.072 749.501, 2166.500 757.192 C 2161 759.909, 2154.475 763.259, 2152 764.637 C 2148.047 766.838, 2146.832 767.050, 2142 766.380 C 2138.975 765.961, 2131.550 765.576, 2125.500 765.525 C 2112.477 765.416, 2109.583 764.326, 2101.693 756.560 C 2097.094 752.035, 2096.047 750.227, 2093.629 742.636 C 2091.638 736.384, 2089.073 731.306, 2084.573 724.707 C 2076.050 712.207, 2075.099 710.144, 2073.413 700.483 C 2072.609 695.878, 2070.772 689.047, 2069.331 685.305 C 2065.566 675.527, 2065.764 670.020, 2071.482 625.500 C 2073.425 610.371, 2073.692 548.169, 2071.842 541.649 C 2069.458 533.247, 2063.394 528, 2056.067 528 C 2053.262 528, 2051.609 528.809, 2048.759 531.577 M 511 538.880 C 509.625 539.334, 505.700 541.121, 502.279 542.853 C 498.857 544.584, 495.153 546, 494.049 546 C 491.410 546, 484.219 548.834, 480.727 551.250 C 477.759 553.304, 468.546 565.276, 464.086 572.875 C 460.129 579.618, 454.904 592.444, 449.167 609.500 C 444.709 622.752, 442.977 629.128, 438.982 647 C 436.983 655.946, 436.061 666.787, 436.031 681.728 C 436.009 692.325, 435.363 700.841, 433.905 709.728 C 430.916 727.957, 432.451 733.095, 444.529 745.287 C 450.053 750.864, 455.529 754.267, 463.668 757.183 C 468.793 759.019, 472.105 759.301, 491 759.514 C 522.636 759.869, 533.075 757.566, 545.211 747.556 C 554.072 740.247, 556.578 736.714, 560.665 725.774 C 562.570 720.673, 566.311 712.225, 568.978 707 C 574.110 696.948, 582.003 678.863, 583.819 673 C 585.443 667.756, 587.514 640.263, 587.397 625.500 C 587.313 614.964, 586.689 609.657, 584.106 597.500 C 582.190 588.487, 580.590 577.311, 580.097 569.500 C 579.216 555.542, 577.908 551.022, 573.602 547.050 C 570.686 544.361, 569.777 544.293, 555.721 545.705 C 546.349 546.647, 545.017 546.365, 533.500 541.005 C 528.130 538.505, 515.692 537.331, 511 538.880 M 1809.317 555.563 C 1801.120 558.438, 1780.626 570.906, 1776 575.831 C 1767.479 584.904, 1758.791 606.327, 1754.632 628.519 C 1753.469 634.726, 1753.351 638.230, 1754.109 644.019 C 1755.212 652.444, 1754.646 659.908, 1752.291 668 C 1751.403 671.054, 1750.649 677.503, 1750.596 682.500 C 1750.503 691.193, 1750.634 691.739, 1754.423 698.500 C 1756.581 702.350, 1759.090 706.850, 1760 708.500 C 1767.650 722.378, 1769.772 725.505, 1774.429 729.761 C 1777.833 732.872, 1781.664 735.247, 1785.118 736.385 C 1803.966 742.601, 1813.466 745.061, 1822.417 746.044 C 1827.963 746.653, 1836.712 748.018, 1841.860 749.076 C 1853.730 751.516, 1857.745 751.492, 1867.552 748.923 C 1872.491 747.630, 1878.440 746.866, 1883.330 746.898 C 1892.971 746.961, 1897.217 745.065, 1902.638 738.274 C 1904.734 735.648, 1910.492 729.329, 1915.434 724.232 C 1920.377 719.134, 1925.225 713.692, 1926.209 712.139 C 1928.654 708.277, 1933.600 694.428, 1936.519 683.266 C 1937.848 678.188, 1939.602 671.663, 1940.418 668.766 C 1941.864 663.634, 1944.618 623.907, 1944.389 611.470 C 1944.254 604.079, 1942.611 600.739, 1935.557 593.514 C 1929.519 587.329, 1925.786 585.422, 1915.534 583.282 C 1907.891 581.686, 1906.026 580.863, 1895.089 574.259 C 1887.132 569.454, 1875.911 564.062, 1869.609 562.015 C 1866.903 561.137, 1863.550 560.988, 1858.609 561.527 C 1854.699 561.953, 1848.123 562.346, 1843.996 562.401 C 1837.069 562.492, 1835.837 562.173, 1827.996 558.250 C 1818.891 553.695, 1815.877 553.262, 1809.317 555.563" stroke="none" fill="#042622" fill-rule="evenodd"/></svg>