<?xml version="1.0" encoding="UTF-8"?>
<svg id="Layer_1" xmlns="http://www.w3.org/2000/svg" version="1.1" viewBox="0 0 2524 1296">
  <!-- Generator: Adobe Illustrator 29.2.1, SVG Export Plug-In . SVG Version: 2.1.0 Build 116)  -->
  <defs>
    <style>
      .st0 {
        fill: #fff;
        fill-rule: evenodd;
      }
    </style>
  </defs>
  <path class="st0" d="M744,10.3c-1.4.7-2.7,2.5-3.1,4.2-.4,1.6-1.5,4.8-2.4,7-1.5,3.4-1.8,7.4-1.8,28.5,0,17.9.3,25.3,1.2,27.5.8,1.8,1.6,10.7,2.1,22.5.6,14.5,1.5,22.6,3.4,31.5,2.3,10.8,2.6,14.2,2.6,34.5,0,15.7.5,25.2,1.5,31.5.8,4.9,2.2,14.4,3,21,.8,6.6,1.9,14.2,2.4,17s1.2,9.9,1.5,16c.3,6,.8,16,1.2,22s.8,18,.8,26.5c0,8.5.7,19.5,1.4,24.5,1.6,11.1.9,43.5-1,48-.9,2.1-1.3,10.7-1.5,29.5-.1,14.6-.7,32.6-1.4,40-.7,7.4-1.6,20.7-2.1,29.5-.5,8.8-1.4,20.7-2,26.5-.6,5.8-1,20.4-.8,32.5.2,12.1-.3,35.5-1,52s-1.8,48.5-2.3,71c-1.2,47.5-2.1,64.7-3.7,76.5-.6,4.7-1.7,16.5-2.3,26.2-1,15.5-1,19,.5,27.5,4.2,25.1,10.4,33.1,23.8,30.7,6.8-1.2,9.6-3.2,12.3-8.7,2.3-4.6,2.6-6.8,3-17.7.2-6.9,1.1-15.8,1.9-20,2.3-11.2,4.1-43.1,3.3-57.8-.7-12.8,1.1-33.3,3.5-41,.6-1.8,4.7-7.3,9.3-12.1,7.5-8.1,12.6-15.9,12.6-19.5s3.7-10.2,9.4-19.9c3-5.1,6.6-11.3,8.1-14,4-7.1,18.9-21.2,26.1-24.8,6-3,6-3,11.2-1.4,8,2.4,16.5,10.3,20.3,18.9,4.3,9.7,4.9,20.5,5.4,89.6.1,17.9.7,46.2,1.4,63,1.9,49.6,2.2,50.6,26.1,75.5,11.4,11.9,15,13.9,23.1,13.2,6.7-.6,9.7-2.4,13.6-7.9,2.6-3.8,2.9-4.8,2.8-13.2,0-10.7-.9-12.7-9.3-21.8-10.6-11.4-10.4-11.1-11.3-28.2-.4-8.3-1.3-17.5-1.9-20.4-1.4-6.2-1.5-9.8-1.2-49.2.2-24.3-.1-32.4-1.8-46-1.1-9.2-2-22.8-2-30.8,0-23.2-3.5-34.2-15.3-48.4-3.5-4.2-8-10.1-10-13-4.8-7.2-8.2-10.2-14.7-13.2-6.7-3.1-21.5-5-33.8-4.4-7.2.3-9.6.9-14.1,3.4-3,1.6-6.6,4.5-8,6.5-3.2,4.3-14.4,15.5-23.5,23.3-3.7,3.2-8.9,9.1-11.7,13.2-4.9,7.3-7.3,9.1-10.3,7.9-2.4-.9-3.9-7.8-3.3-14.8,1.1-13.2,2.8-49.7,2.9-60.6,0-26.8-1-62-2.1-68.4-1-5.7-.9-9.2.5-20.5,1.5-11.6,1.5-15.4.5-26.1-1.6-17.2-1.4-60.6.3-83.5,1.7-22.1,1.9-50.8.5-61.5-1.2-8.6-3.8-38-5.1-55.5-.5-6.6-1.3-15.4-1.9-19.5-1.3-9.2-1.7-12.6-3-31-.6-8-2.2-19.9-3.6-26.4-1.4-6.6-2.9-17.6-3.4-24.5-.5-6.9-1.4-15.5-2-19.1-2.9-18.3-4.3-30.9-5.1-44-1-17.9-1.6-20.7-4.6-23.8-1.3-1.3-3.1-3.5-4-4.8-1.8-2.8-7.1-3.3-11.3-1.2M65.6,44.1c-5.1,6.1-5.8,9.1-6.3,28.4-.3,10.8,0,22.2.7,28.5,2.3,20.3,2.3,23.5.1,35.2-1.2,6.2-3.3,18.2-4.7,26.8-3.8,23-5,27.4-10.9,39.5-2.9,6.1-5.9,12.8-6.6,14.9-1.8,5.7-1.3,20.7,1,31.6,2.9,13.6,2.7,19.8-1.1,35-.5,1.9-1.3,8-1.9,13.5-1.2,11.1-2.7,21.7-4,28.5-.5,2.5-1.2,16.4-1.5,30.9l-.6,26.4-3.5,9.6c-8.2,22.6-7.8,20.6-7.4,34.1.6,22.4.5,27.4-.7,33-2.5,11.4-4.1,25.9-4.1,37.3,0,10.2-.4,12.9-2.8,20-2.4,7.2-2.7,9.4-2.4,18.2.5,14.5.4,24.3-.4,49.5-1,34.6,1.6,99.2,4.4,108.3.6,1.8,2.5,8,4.3,13.7,3.2,10.1,3.3,11.1,3.5,28.5.2,26.2,1.2,33.6,6.4,50,3.4,10.8,5.4,21.9,7.4,42.5,1.5,15,4.7,36.4,6.1,40.5,1.4,4.3,5.9,12.1,8.4,14.8,6.6,7.1,14.9,9.2,22.4,5.7,4-1.9,5.1-3.1,7.7-8.6,4-8.4,4.9-17.1,4.9-47.5,0-20-.3-25.1-2-33-1.1-5.2-2.9-13.9-4-19.4-2.1-10.2-6.3-27.8-7.4-30.5-.3-.8-1.3-8.9-2.1-18s-2.1-20.1-2.9-24.5c-1.1-6.1-1.2-9.9-.4-16,1.1-8.8,0-19.4-3.4-34.5-2.1-9-4-46.4-4.3-82,0-9.6-.5-22.9-1-29.5-.6-8.4-.5-14.7.4-21,.7-5,1.4-16.5,1.6-25.7.3-14.2.7-17.9,2.8-25,3.1-10.5,4.4-18.6,5.6-36.8.5-8,1.9-18.5,3-23.3,1.1-4.8,2.1-10.3,2.1-12.1s.9-8,2.1-13.7c2.2-11,2.2-22.8,0-32.4-1.3-5.8-1.4-9-.2-16.3.7-4.3.4-7-1.6-14.5-2.2-8.5-2.3-9.8-1.2-17,1-6.2.9-8.1-.1-9.3-1.8-2.1-1.8-21.4,0-27.7,1.1-3.9,1.1-5.5,0-8.6-1.4-4.2-.9-14.6,1-22.1.6-2.5,1.5-9.9,1.9-16.5.8-13.4.9-13.5,6.3-22.1,5.7-9.1,6.8-14,6.6-29-.1-7.1.2-16.5.6-21,.7-6.7.4-10.1-1.4-19.4-1.9-9.7-2.1-12.1-1.1-17.6,2.9-16.8,2-54.3-1.6-61.4-1.8-3.6-5.7-8-7.1-8-.4,0-1.9-.9-3.3-2-3.4-2.7-4.4-2.5-7.4,1.1M1095.4,121.1c-4.8,2.5-10,10.4-12.1,18.2-.8,3.1-1.2,9.3-1.1,15.7.2,8.4-.2,12-1.9,18-1.2,4.1-3.4,12.1-4.8,17.8-1.4,5.7-3.4,12.4-4.3,15-2,5.4-2.2,23.8-.3,28.5,1.5,3.9,1.4,14.3-.5,33.2-.9,8.8-1.7,27.7-1.9,42.1-.3,21.5-.7,27.1-2.2,32-2.5,8.2-2.5,29.1,0,44l1.8,11-4.5,14c-6,18.7-6.5,21.8-7.3,45-.8,23.6-.7,28.1.7,35.7,3.3,18.9-.6,25.7-17.1,29.3-9.8,2.2-15.4,5.5-19.1,11.2-6.9,10.8-1.4,29.5,9.2,31.6,1.7.3,5.3.6,8.1.6s5.8.5,6.9,1.1c2.9,1.6,4.1,5.5,2.9,9.8-1.1,3.9-2.3,33.1-4.1,99.2-1.2,43.1-.8,50.4,3.1,58,1.1,2.1,3.4,4.8,5.1,6.1,4,2.9,5.9,7.5,5.9,14.4s.7,7.2,1.5,9.1c2.4,5.8,10.5,15,18,20.6,3.8,2.9,9.9,8,13.5,11.3,3.6,3.3,9.4,8,13,10.4s6.7,4.6,7,5c1.4,1.8,10.5,7.3,14.2,8.6,5.1,1.8,29.2,3.6,39.8,2.9,4.1-.3,11.8-.7,17.1-.9,17.9-.8,22.6-4.3,22.8-17.2,0-3.9-.4-5.8-2.1-8-3.3-4.3-4.7-5.2-11.8-7.4-5.2-1.6-11.1-2.2-29-3-12.4-.5-24.2-1.4-26.2-2-2.6-.7-5.3-2.8-9-7-2.9-3.3-7.4-7.4-10-9.1-7.9-5.1-13-11.5-19.8-24.8-1-1.9-3.6-5.7-5.9-8.4-5.1-6.1-5.6-8-4-16.4.8-4.3,1.5-24.4,2-54.8l.7-48,2.7-9.5c1.5-5.2,3.6-14.9,4.7-21.5,2.6-15.6,4.4-20.9,8.7-25.7,5.6-6.2,9.1-7.5,22.2-8,9.9-.4,12.3-.8,17.2-3.2,6.9-3.3,12.4-9.1,13.3-14,.4-2,.4-5.7,0-8.2-.8-5.4-5.4-10.7-12.2-14.2-7-3.5-21.4-7.4-30.1-8.1-12.3-1-12.6-1.4-14.3-20-1.6-18.3-.3-34.1,3.6-43.6,7-17,7.5-19.8,7.1-36-.2-8.2-.9-17.9-1.5-21.5-.6-3.6-1.3-17.5-1.6-31-.5-19.3-.3-26.7.9-35,.8-5.8,2-14.5,2.5-19.3.5-4.9,1.9-11.8,3-15.5,1.1-3.7,2.5-12.3,3.1-19.2.6-6.9,1.7-16.4,2.5-21.3,1-5.7,1.3-11.6.9-17-.9-12.2-1.7-38.6-1.9-61.7-.1-21.2-.5-23.4-5-32.8-3.6-7.3-12.6-10.1-20.2-6.1M2362.8,174.7c-5.7.9-11.1,10.5-14.4,25.7-1.3,5.8-1.5,15.1-1.5,52.6,0,40.9-.2,46.4-1.9,54.9-2.6,12.8-5.2,52.9-3.9,60.1,1.9,10.5,2.2,16.9,1.2,21.2-.6,2.4-1.6,10-2.3,16.9-1,10.3-1,14.2.1,21.2,1.1,7.1,1.1,9.6,0,14.4-.7,3.2-1.2,10.4-1.2,16,.1,9,0,10.5-1.9,12.2-3,3-5.1,2.5-12.5-3.4-6.4-5.1-12-7.3-15.7-6.2-.7.2-2.6.7-4.1,1-6.6,1.4-14.6,12.4-16.7,22.8-1.5,7.2.5,15,5.1,20.3,5,5.7,8,6.8,20.7,7.4l11.4.6,2.8,3.4c1.6,2,3.1,5.2,3.5,7.6,1,6.6,1,37,0,47.5-1.2,13.1.4,23.3,5.6,35.7,4,9.5,4.1,10,4.9,25.7.5,9.9,1.6,19.6,2.9,25.5,2,8.8,2,10.4.9,22-1.6,17.2-.7,27.1,4.7,48.3,4.7,18.8,9.1,30,14.5,37,7.4,9.7,23.9,23,34.5,27.9,4.2,2,6.5,2.2,17.4,2.2,19.5,0,27.2-3.3,43.1-18.1,5.2-4.9,12.4-10.6,16-12.7,15.6-9.5,27.6-20.2,31.8-28.3,3.1-6.1,9.1-24.7,10.4-32.5.9-5.3.9-7.6,0-10.2-.7-1.8-1.2-4.1-1.2-5s-1.4-2.9-3.1-4.6c-4.1-3.8-10.7-4.7-16.4-2.2-6.2,2.7-16.4,15-22.5,27.1-5.3,10.5-11,16.1-33,32.6-5.8,4.3-12.3,9.3-14.5,11-4.5,3.6-11.2,5.9-14.7,5-4.6-1.2-11.9-6.7-16.4-12.5-8.3-10.7-11.4-18.5-11.5-28.7,0-3.3-.7-9.8-1.6-14.5-1.1-5.9-1.7-17.6-2-38.2-.5-30.4-.7-32.5-4.3-46.2-2.3-8.6-2.7-17.8-1-24.1.7-2.5,1-17.5.9-39.7-.1-38.9-.2-38.5,5.7-44,4-3.8,9.8-5.6,25.8-7.9,24.6-3.5,31.1-8.9,27.3-22.3-1.4-5-3.9-7.9-9.3-11-7.9-4.6-15.7-4.9-46.7-2-8.9.9-10.8-3-7.3-14.1,1.3-4,1.6-9.5,1.5-26.9,0-16.3.4-23.9,1.5-29.5,1.1-5.4,1.6-14.6,1.8-32.8.3-31.9.9-41,4.5-66.3,2.7-19.5,2.9-22.3,2.9-58,0-40.6-.6-49.4-4-56.5-1.8-3.7-3.1-5-6.6-6.6-4.3-1.9-6-2-11.5-1.2M211.5,360.3c-5.4,2.2-9,4.8-12.1,9-4.1,5.6-5.4,9.6-5.4,17.7s3.2,16.4,11.4,19.9c6,2.6,9.1,2.6,16.3-.1,5.7-2.1,15-9.8,19.5-16.1,2.6-3.6,3.9-12,2.5-16.5-1.3-4.3-7-10.3-12.2-12.7-4.7-2.2-15.8-2.9-20-1.2M223.5,486c-7,3.2-13.5,15.8-17.5,34.5-2.5,11.5-2.5,19.9.2,36.5,2.1,12.6,2.1,14.5,1,30.5-2.1,29.9-1.2,65.2,1.7,69,.5.6,1.6,4,2.6,7.7,1.6,6.1,1.6,7,.1,12.8-1.8,7.2-2.1,19-.5,24.1.6,1.9,1.2,11.9,1.4,22.2.4,20.4.2,19.5,7.9,32.3,4.4,7.2,6.1,13,7.6,25.5.6,5.2,1.5,10.6,2,12,1.6,4.9,5,21.7,6.5,32.1,2.2,15.9,5.8,22.8,14.9,28.6,2.7,1.7,5.8,2.6,10.5,3,5.8.5,7,.3,9.1-1.6,1.3-1.2,2.8-2.1,3.2-2.1s.8-.5.8-1,.8-1.9,1.9-3c3.4-3.7,4.4-9.7,4.3-25.3,0-8.2-.6-16.5-1.3-18.5-1.7-5.3-2.5-8.1-3.8-13.1-.7-2.5-1.6-5.9-2.1-7.6-.5-1.7-.9-4.6-.9-6.5,0-5.5-2.5-12.3-9-24.5l-6.1-11.4-.9-14.5c-.5-8-1.2-15-1.6-15.7-1-1.7-2.8-43.9-2.4-57.3.8-25.9.4-51.4-1.1-61.5-1.3-9.3-1.3-11.4,0-18,1.6-8.2,1.9-24.1.8-50.2-.6-14.8-1-17.4-3.2-22.4-2.9-6.5-8.9-14.3-11-14.3s-1.4-.4-1.4-.9-1.5-1.1-3.2-1.3c-1.8-.3-3.9-.7-4.8-1-.8-.3-3.3.2-5.5,1.2M481,502.5c-3,.7-6.7,1.8-8.3,2.4-4.2,1.7-12.6,8.3-18.3,14.3-2.8,3-7.5,7.4-10.5,9.9-8.1,6.8-10.9,9.8-17.5,18.3-3.3,4.3-6.9,9-8,10.4s-3.3,4-4.9,5.7c-5,5.3-8.9,16.9-13.6,39.8-1.2,5.8-2.3,8.3-9.9,21.8-7.4,13.2-10.1,26.1-10.5,51.5-.2,10.5-.7,24-1.1,30.1-1.3,19.3,3,35.8,14,53.4,3.7,5.9,7.6,10,15.6,16.3,5.7,4.5,9,7.3,13.4,11.2,11.5,10.1,28.3,18.2,43.1,20.7,5.4.9,47.4,2,66.2,1.7,9.7-.1,23.5-3.8,31.7-8.4,9.5-5.3,24.4-16.8,36.1-27.8,5.5-5.2,10.8-9.7,11.7-10.1,1-.4,2.5,0,3.6,1.1,3.2,2.8,7.2,16.5,8.2,28.2.5,5.8,1.6,13.5,2.4,17.1,1.7,7.5,2.1,35.3.5,46-.5,3.6-1.1,25.4-1.4,48.5-.3,23.1-.8,49.8-1.2,59.4-.8,21.8.2,28.7,5.9,39.1,4,7.2,4.1,7.9,4.8,19,.6,10.3,1.1,12.5,4.7,21.5,7,17.3,8.9,29.7,6.2,38.5-.6,1.9-1.5,17.2-1.9,34-1.2,43.2-2.6,49-17.5,72.6-3.5,5.6-7.6,12.9-9,16.4-3.2,7.9-6.1,12.5-14.3,22.5-14.4,17.7-15.9,18.7-32.9,21.5-17.1,2.9-19.6,1.8-31-13.2-7.8-10.3-12.1-18.2-15.2-27.9-2.9-9.1-4.5-21-3.7-27.2.4-2.9,1.1-9.7,1.6-15.2,3.1-31,5.4-45.4,8.7-54.4,4.5-12.1,5.3-15.6,5.3-23.2,0-6.3-.5-8.5-2.7-13-4.8-9.4-14.6-14-23.8-10.9-8.5,2.8-15.5,13.8-27.6,43.5l-5.3,13-.9,19c-.5,10.4-.9,23.7-1,29.5,0,14.8,1.9,46.9,3.1,50.6,1.1,3.5,4.2,9.7,5.2,10.4,2.1,1.6,9.4,12.8,13.4,20.6,5.1,10,11.1,16.4,26.3,28.1,15.6,12,24.3,14.3,46.9,12.3,26.7-2.4,35.2-5.5,45.7-16.9,3.4-3.7,10.5-11,15.8-16.2,12.2-12.1,13.9-14.4,19.5-27.1,4.4-10,9.7-18.4,16.4-25.9,8.7-9.9,14.1-23.1,17.5-43.2,2.1-12.5,3.4-104.8,1.6-114.8-1.5-8.5-4.4-14.4-13.8-28.8-4.4-6.8-8.3-13.6-8.7-15.3-.4-1.7,0-6.2.9-10.2,1.2-5.7,1.7-16.2,2.1-50.2.3-23.7.8-56.6,1.1-73.2.4-18,.2-36.8-.4-46.6-1.3-20.7-6.7-49.6-13.1-70.2-3.7-11.9-4.1-15.2-5-41.5-1.2-36-2.3-45.3-6.4-59.5-3.4-11.5-3.5-12.6-3.5-27.7s-2.4-39.1-5-50.9c-.5-2.4-1.2-5.7-1.6-7.4s-1.9-5.7-3.4-9c-1.5-3.3-3.5-8.2-4.5-11-5.2-15.4-8.1-20-14.9-24.3-12-7.5-17.3-9.2-33.4-10.8-8.1-.8-18.1-2.5-22.3-3.7-6.6-2-9.8-2.2-27-2.3-10.9,0-22.6-.6-26.5-1.3-3.9-.7-8.1-1.4-9.5-1.6-1.4-.2-5,.2-8,.9M1832.5,517.2c-4.9.4-13.7,1.2-19.5,1.7-12,1.1-23.3,4.5-32.5,9.8-5.7,3.3-22.8,17.5-27,22.4-2.1,2.5-10.5,15.5-10.5,16.3s-2.4,4.5-5.2,9.5c-12.8,22-16.8,30-18.3,36.7-.9,3.8-3.2,10.5-5.2,14.8-3.5,7.6-3.6,8.6-4.3,23-.4,8.3-1,16.8-1.3,19-1.6,10.3-2.3,26.1-1.5,32.2,1,7.4,5.8,21.8,10,30.7,3.5,7.3,8.9,14.5,19.3,26,13.9,15.3,21,19.6,41.6,25,3,.8,10,2.9,15.5,4.6,12.4,3.9,17.9,4.8,32.5,5.6,6.3.3,15.8.9,21,1.3,14.2,1,31.4-.3,38-2.8,9.9-3.8,15.4-5.7,21-7,9.6-2.3,15.4-5.5,23.2-12.9,9.8-9.3,12.7-15.6,13.8-29.1.4-5.3,1.1-10.5,1.5-11.6.4-1.1,3.2-4.7,6.2-7.9,3-3.2,6.3-8,7.5-10.5,1.1-2.5,4.5-9.6,7.4-15.6,6.3-12.9,9.4-26.1,9.4-40.2,0-4.9.9-13.5,2.1-19.3,1.7-8.6,2-12.5,1.5-21.9-.8-13.6-2.1-17.9-8.6-27.8-2.7-4.2-4.9-8.1-4.9-8.7,0-3-5.1-11.6-9.1-15.3-9.1-8.5-24.5-19.4-35.9-25.3-3.6-1.9-8.1-4.4-10-5.5-4-2.5-17.5-8.4-27.5-12-12.6-4.6-33.6-6.8-50-5.4M1362.5,525.5c-16.4,4-22.3,11.1-41.9,50-4.9,9.7-5,10.3-5,18.5,0,12.5,2.9,16.9,19.6,29.7,10.6,8.1,17.3,10.9,33.4,13.8,10.7,1.9,38.2,12.5,41.2,15.8,5.4,5.9,5.7,7.3,5.8,21.7,0,7.5.7,16.7,1.4,20.6,1.6,8.4.8,25.7-1.4,32.9-3.8,12.3-13,23.9-30.9,39.4-13.2,11.3-17.1,14.3-23.1,17.2-2.7,1.4-7.2,3.9-10,5.7-7,4.6-10.9,5.1-16.2,2.3-5-2.7-8.3-8.5-8.3-14.7s-2-15.4-5-21.8c-3.1-6.7-10.6-14.6-16-16.9-5.9-2.4-14.3-3.1-17.6-1.3-7.6,3.9-10.1,8.8-11.1,20.7-.8,9.9.7,17.5,5.7,30,2.1,5.3,5,13.4,6.5,18.1,5.8,18.6,13.6,26.3,32.5,32.1,11.5,3.6,22.7,3.3,35-1,14-4.9,25.3-11.1,37.5-20.7,3.3-2.6,9.8-6.6,14.4-8.8,8.9-4.4,14.8-9.5,25.9-22.4,3.4-4,7.4-9.6,8.8-12.5,3-6,6.2-10.9,12.1-19.1,2.3-3.2,4.7-7.5,5.3-9.5,3.7-12.3,3.8-14.5,3.5-45.2-.4-37.5-1.1-40.6-12.4-57.7-2.2-3.3-5.4-8.9-7.1-12.3-6.1-12.6-10.5-16.5-24.2-21.5-5.2-1.9-13.7-5.2-18.9-7.3-5.2-2.2-12.7-4.5-16.5-5.2-14.5-2.5-18.5-4.3-18.5-8.3,0-5.7,10.1-15.8,17.7-17.8,7.7-1.9,18.5-2.5,22.7-1.1,2.1.7,6.6,3.8,10.1,7,5.5,4.9,7,5.8,11.3,6.3,7.7.9,11.8-.1,15.6-4,5.1-5.1,6-15.6,2.1-23.2-2.6-5-18.7-19.4-25.7-22.9-8.2-4.1-11.3-4.9-26.9-6.7-14.9-1.7-24.7-1.7-31.5,0M2048.8,531.6c-4.1,4-7.9,11.5-9.6,19-.6,2.7-1.6,13.5-2.2,23.9-.6,10.4-1.5,21.2-2,23.9-.5,2.7-.9,7.7-.9,11s-.9,11.5-2,18.1c-3.5,21.3-4.2,39-2.5,58.6,1.8,20.3,1.8,20.2,6.2,29.9,1.9,4.1,5.1,12.5,7.1,18.6,5.7,17.1,10.5,24.5,24.6,38.2,9.9,9.6,13.8,12.7,21.6,16.9,14.4,7.8,17.2,8.5,29.8,7.8,9.8-.6,11.4-.4,19,2,12.8,4,20.5,3.4,31.7-2.6,16.3-8.8,20.2-12.1,29.5-25,1.3-1.9,4.3-4.7,6.5-6.3,6.9-4.9,12.6-10.7,14.7-14.7,2.8-5.4,5.4-7.8,8.9-7.8,5.5,0,9.9,9.8,10,22.1,0,10.4,5.4,20.2,11.8,21.7,8.3,2,12.1,1.5,16.7-2.2,3.9-3.2,4.3-3.9,4.9-9.5.6-5.9-1.8-23.6-4.4-32.1-3.4-11.2-8.3-32.6-9.1-39.5-2-17.7-3.3-45.6-3.3-76,0-27.1-.3-32.8-1.7-37.3-.9-2.9-2-9.2-2.4-14-1.4-18.5-9-26.1-23.2-23.2-4.6.9-6.5,2-9.5,5.1-2.1,2.2-4.5,5.4-5.4,7.1-2.7,5.1-2.3,15.4,1.1,27.7,3.1,11.2,3.6,21,2.1,38.6-.6,7.1-.4,9.2,1.8,16.5,4.1,13.5,4.1,13.5.3,23.9-1.9,5.2-3.7,12.4-4.1,16-.9,7.7-2.6,12.2-6.5,17.1-3.6,4.5-7.9,12.5-11,20.4-5.6,14.3-14.9,24-30.5,31.7-5.5,2.7-12,6.1-14.5,7.4-4,2.2-5.2,2.4-10,1.7-3-.4-10.4-.8-16.5-.9-13-.1-15.9-1.2-23.8-9-4.6-4.5-5.6-6.3-8.1-13.9-2-6.3-4.6-11.3-9.1-17.9-8.5-12.5-9.5-14.6-11.2-24.2-.8-4.6-2.6-11.4-4.1-15.2-3.8-9.8-3.6-15.3,2.2-59.8,1.9-15.1,2.2-77.3.4-83.9-2.4-8.4-8.4-13.6-15.8-13.6s-4.5.8-7.3,3.6M511,538.9c-1.4.5-5.3,2.2-8.7,4-3.4,1.7-7.1,3.1-8.2,3.1-2.6,0-9.8,2.8-13.3,5.2-3,2.1-12.2,14-16.6,21.6-4,6.7-9.2,19.6-14.9,36.6-4.5,13.3-6.2,19.6-10.2,37.5-2,8.9-2.9,19.8-3,34.7,0,10.6-.7,19.1-2.1,28-3,18.2-1.5,23.4,10.6,35.6,5.5,5.6,11,9,19.1,11.9,5.1,1.8,8.4,2.1,27.3,2.3,31.6.4,42.1-1.9,54.2-12,8.9-7.3,11.4-10.8,15.5-21.8,1.9-5.1,5.6-13.5,8.3-18.8,5.1-10.1,13-28.1,14.8-34,1.6-5.2,3.7-32.7,3.6-47.5,0-10.5-.7-15.8-3.3-28-1.9-9-3.5-20.2-4-28-.9-14-2.2-18.5-6.5-22.5-2.9-2.7-3.8-2.8-17.9-1.3-9.4.9-10.7.7-22.2-4.7-5.4-2.5-17.8-3.7-22.5-2.1M1809.3,555.6c-8.2,2.9-28.7,15.3-33.3,20.3-8.5,9.1-17.2,30.5-21.4,52.7-1.2,6.2-1.3,9.7-.5,15.5,1.1,8.4.5,15.9-1.8,24-.9,3.1-1.6,9.5-1.7,14.5,0,8.7,0,9.2,3.8,16,2.2,3.8,4.7,8.3,5.6,10,7.7,13.9,9.8,17,14.4,21.3,3.4,3.1,7.2,5.5,10.7,6.6,18.8,6.2,28.3,8.7,37.3,9.7,5.5.6,14.3,2,19.4,3,11.9,2.4,15.9,2.4,25.7-.2,4.9-1.3,10.9-2.1,15.8-2,9.6,0,13.9-1.8,19.3-8.6,2.1-2.6,7.9-8.9,12.8-14,4.9-5.1,9.8-10.5,10.8-12.1,2.4-3.9,7.4-17.7,10.3-28.9,1.3-5.1,3.1-11.6,3.9-14.5,1.4-5.1,4.2-44.9,4-57.3-.1-7.4-1.8-10.7-8.8-18-6-6.2-9.8-8.1-20-10.2-7.6-1.6-9.5-2.4-20.4-9-8-4.8-19.2-10.2-25.5-12.2-2.7-.9-6.1-1-11-.5-3.9.4-10.5.8-14.6.9-6.9,0-8.2-.2-16-4.2-9.1-4.6-12.1-5-18.7-2.7"/>
</svg>